<svg width="166" height="47" viewBox="0 0 166 47" fill="none" xmlns="http://www.w3.org/2000/svg">
<rect y="0.693359" width="166" height="45.9149" rx="22.9574" fill="#7EE36D"/>
<path d="M54.3518 30.9859C52.6401 30.9859 51.2 30.6073 50.0314 29.8502C48.8629 29.0767 48.0399 28.0316 47.5626 26.7149L50.4758 25.0114C51.1506 26.7725 52.4755 27.653 54.4505 27.653C55.4051 27.653 56.1046 27.4802 56.549 27.1346C56.9934 26.789 57.2156 26.3528 57.2156 25.8261C57.2156 25.2172 56.944 24.7481 56.4009 24.4189C55.8577 24.0733 54.8867 23.703 53.4877 23.308C52.7142 23.0776 52.0558 22.8471 51.5127 22.6167C50.986 22.3863 50.4511 22.0818 49.908 21.7033C49.3813 21.3083 48.9781 20.8145 48.6983 20.222C48.4185 19.6295 48.2786 18.9382 48.2786 18.1482C48.2786 16.5847 48.8299 15.342 49.9327 14.4204C51.0518 13.4822 52.3932 13.0132 53.9568 13.0132C55.3557 13.0132 56.5819 13.3588 57.6353 14.05C58.7051 14.7248 59.5362 15.6712 60.1287 16.8891L57.2649 18.5432C56.5737 17.062 55.471 16.3213 53.9568 16.3213C53.2491 16.3213 52.6895 16.4859 52.278 16.8151C51.883 17.1278 51.6855 17.5393 51.6855 18.0495C51.6855 18.5926 51.9077 19.037 52.3521 19.3826C52.8129 19.7118 53.6852 20.0739 54.969 20.4689C55.4956 20.6335 55.8907 20.7651 56.154 20.8639C56.4338 20.9462 56.8041 21.0861 57.2649 21.2836C57.7422 21.4646 58.1043 21.6374 58.3512 21.802C58.6145 21.9666 58.9108 22.1888 59.24 22.4686C59.5691 22.7484 59.816 23.0364 59.9806 23.3327C60.1616 23.6289 60.3098 23.991 60.425 24.4189C60.5567 24.8304 60.6225 25.283 60.6225 25.7768C60.6225 27.3732 60.0382 28.6405 58.8696 29.5787C57.7176 30.5168 56.2116 30.9859 54.3518 30.9859ZM73.6482 13.3588V16.6176H68.9822V30.6403H65.5753V16.6176H60.934V13.3588H73.6482ZM85.406 30.6403L84.3691 27.5296H77.4812L76.4443 30.6403H72.7658L78.8143 13.3588H83.0359L89.1091 30.6403H85.406ZM78.5674 24.3449H83.3075L80.9375 17.2841L78.5674 24.3449ZM100.267 30.6403L96.7863 24.6411H94.1941V30.6403H90.7871V13.3588H97.6997C99.2962 13.3588 100.654 13.9184 101.773 15.0376C102.892 16.1567 103.452 17.5063 103.452 19.0864C103.452 20.1562 103.148 21.1519 102.539 22.0736C101.93 22.9788 101.123 23.6618 100.119 24.1227L103.946 30.6403H100.267ZM94.1941 16.5435V21.6539H97.6997C98.3416 21.6539 98.893 21.407 99.3538 20.9133C99.8147 20.403 100.045 19.7941 100.045 19.0864C100.045 18.3786 99.8147 17.7779 99.3538 17.2841C98.893 16.7904 98.3416 16.5435 97.6997 16.5435H94.1941ZM117.021 13.3588V16.6176H112.355V30.6403H108.948V16.6176H104.306V13.3588H117.021Z" fill="white"/>
</svg>
